HIERARCHY
ROOT hip
{
  OFFSET 0.325607 79.8457 158.113
  CHANNELS 6 Xposition Yposition Zposition Zrotation Xrotation Yrotation
  JOINT abdomen
  {
    OFFSET 0 20.6881 -0.73152
    CHANNELS 3 Zrotation Xrotation Yrotation
    JOINT chest
    {
      OFFSET 0 11.7043 -0.48768
      CHANNELS 3 Zrotation Xrotation Yrotation
      JOINT neck
      {
        OFFSET 0 22.1894 -2.19456
        CHANNELS 3 Zrotation Xrotation Yrotation
        JOINT head
        {
          OFFSET -0.24384 7.07133 1.2192
          CHANNELS 3 Zrotation Xrotation Yrotation
          JOINT leftEye
          {
            OFFSET 4.14528 8.04674 8.04672
            CHANNELS 3 Zrotation Xrotation Yrotation
            End Site
            {
              OFFSET 1 0 0
            }
          }
          JOINT rightEye
          {
            OFFSET -3.6576 8.04674 8.04672
            CHANNELS 3 Zrotation Xrotation Yrotation
            End Site
            {
              OFFSET 1 0 0
            }
          }
        }
      }
      JOINT rCollar
      {
        OFFSET -2.68224 19.2634 -4.8768
        CHANNELS 3 Zrotation Xrotation Yrotation
        JOINT rShldr
        {
          OFFSET -8.77824 -1.95073 1.46304
          CHANNELS 3 Zrotation Xrotation Yrotation
          JOINT rForeArm
          {
            OFFSET -28.1742 -1.7115 0.48768
            CHANNELS 3 Zrotation Xrotation Yrotation
            JOINT rHand
            {
              OFFSET -22.5879 0.773209 7.07136
              CHANNELS 3 Zrotation Xrotation Yrotation
              JOINT rThumb1
              {
                OFFSET -1.2192 -0.487915 3.41376
                CHANNELS 3 Zrotation Xrotation Yrotation
                JOINT rThumb2
                {
                  OFFSET -3.37035 -0.52449 3.41376
                  CHANNELS 3 Zrotation Xrotation Yrotation
                  End Site
                  {
                    OFFSET -1.78271 -1.18214 1.43049
                  }
                }
              }
              JOINT rIndex1
              {
                OFFSET -7.75947 0.938293 5.60832
                CHANNELS 3 Zrotation Xrotation Yrotation
                JOINT rIndex2
                {
                  OFFSET -2.54057 -0.884171 1.56538
                  CHANNELS 3 Zrotation Xrotation Yrotation
                  End Site
                  {
                    OFFSET -1.62519 -0.234802 1.16502
                  }
                }
              }
              JOINT rMid1
              {
                OFFSET -8.24714 1.18213 3.41376
                CHANNELS 3 Zrotation Xrotation Yrotation
                JOINT rMid2
                {
                  OFFSET -3.10165 -0.590103 1.0647
                  CHANNELS 3 Zrotation Xrotation Yrotation
                  End Site
                  {
                    OFFSET -2.48547 -0.328903 0.83742
                  }
                }
              }
              JOINT rRing1
              {
                OFFSET -8.82822 0.546677 1.51678
                CHANNELS 3 Zrotation Xrotation Yrotation
                JOINT rRing2
                {
                  OFFSET -2.60934 -0.819778 -0.0198488
                  CHANNELS 3 Zrotation Xrotation Yrotation
                  End Site
                  {
                    OFFSET -2.33842 -0.294052 0.168128
                  }
                }
              }
              JOINT rPinky1
              {
                OFFSET -8.27202 -0.0477905 -0.4584
                CHANNELS 3 Zrotation Xrotation Yrotation
                JOINT rPinky2
                {
                  OFFSET -1.82734 -0.647385 -0.700984
                  CHANNELS 3 Zrotation Xrotation Yrotation
                  End Site
                  {
                    OFFSET -1.69225 -0.51767 -0.607171
                  }
                }
              }
            }
          }
        }
      }
      JOINT lCollar
      {
        OFFSET 2.68224 19.2634 -4.8768
        CHANNELS 3 Zrotation Xrotation Yrotation
        JOINT lShldr
        {
          OFFSET 8.77824 -1.95073 1.46304
          CHANNELS 3 Zrotation Xrotation Yrotation
          JOINT lForeArm
          {
            OFFSET 28.1742 -1.7115 0.48768
            CHANNELS 3 Zrotation Xrotation Yrotation
            JOINT lHand
            {
              OFFSET 22.5879 0.773209 7.07136
              CHANNELS 3 Zrotation Xrotation Yrotation
              JOINT lThumb1
              {
                OFFSET 1.2192 -0.487915 3.41376
                CHANNELS 3 Zrotation Xrotation Yrotation
                JOINT lThumb2
                {
                  OFFSET 3.37035 -0.52449 3.41376
                  CHANNELS 3 Zrotation Xrotation Yrotation
                  End Site
                  {
                    OFFSET 1.78271 -1.18214 1.43049
                  }
                }
              }
              JOINT lIndex1
              {
                OFFSET 7.75947 0.938293 5.60832
                CHANNELS 3 Zrotation Xrotation Yrotation
                JOINT lIndex2
                {
                  OFFSET 2.54057 -0.884171 1.56538
                  CHANNELS 3 Zrotation Xrotation Yrotation
                  End Site
                  {
                    OFFSET 1.62519 -0.234802 1.16502
                  }
                }
              }
              JOINT lMid1
              {
                OFFSET 8.24714 1.18213 3.41376
                CHANNELS 3 Zrotation Xrotation Yrotation
                JOINT lMid2
                {
                  OFFSET 3.10165 -0.590103 1.0647
                  CHANNELS 3 Zrotation Xrotation Yrotation
                  End Site
                  {
                    OFFSET 2.48547 -0.328903 0.83742
                  }
                }
              }
              JOINT lRing1
              {
                OFFSET 8.82822 0.546677 1.51678
                CHANNELS 3 Zrotation Xrotation Yrotation
                JOINT lRing2
                {
                  OFFSET 2.60934 -0.819778 -0.0198488
                  CHANNELS 3 Zrotation Xrotation Yrotation
                  End Site
                  {
                    OFFSET 2.33842 -0.294052 0.168128
                  }
                }
              }
              JOINT lPinky1
              {
                OFFSET 8.27202 -0.0477905 -0.4584
                CHANNELS 3 Zrotation Xrotation Yrotation
                JOINT lPinky2
                {
                  OFFSET 1.82734 -0.647385 -0.700984
                  CHANNELS 3 Zrotation Xrotation Yrotation
                  End Site
                  {
                    OFFSET 1.69225 -0.51767 -0.607171
                  }
                }
              }
            }
          }
        }
      }
    }
  }
  JOINT rButtock
  {
    OFFSET -8.77824 4.35084 1.2192
    CHANNELS 3 Zrotation Xrotation Yrotation
    JOINT rThigh
    {
      OFFSET 0 -1.70687 -2.19456
      CHANNELS 3 Zrotation Xrotation Yrotation
      JOINT rShin
      {
        OFFSET 0 -36.8199 0.73152
        CHANNELS 3 Zrotation Xrotation Yrotation
        JOINT rFoot
        {
          OFFSET 0.73152 -45.1104 -5.12064
          CHANNELS 3 Zrotation Xrotation Yrotation
          End Site
          {
            OFFSET -1.1221 -3.69964 12.103
          }
        }
      }
    }
  }
  JOINT lButtock
  {
    OFFSET 8.77824 4.35084 1.2192
    CHANNELS 3 Zrotation Xrotation Yrotation
    JOINT lThigh
    {
      OFFSET 0 -1.70687 -2.19456
      CHANNELS 3 Zrotation Xrotation Yrotation
      JOINT lShin
      {
        OFFSET 0 -36.8199 0.73152
        CHANNELS 3 Zrotation Xrotation Yrotation
        JOINT lFoot
        {
          OFFSET -0.73152 -45.1104 -5.12064
          CHANNELS 3 Zrotation Xrotation Yrotation
          End Site
          {
            OFFSET 1.1221 -3.69964 12.103
          }
        }
      }
    }
  }
}
MOTION
Frames:	4
Frame Time:	0.00833333
7.09206 85.2343 -196.198 -0.535984 -0.000989691 0.00934292 0.705188 -0.00371385 0.0199543 0.194579 -0.00526913 0.033714 -6.63129e-015 1.59028e-015 -2.11209e-016 -1.96579e-014 9.54166e-015 -5.38893e-016 -0 0 0 -0 0 0 -3.23161e-015 1.32005e-017 0 -6.84374e-014 3.72721e-016 -1.19271e-015 -1.18883e-012 3.6318e-013 -3.49861e-014 -1.36247e-011 -3.24491e-013 -3.91208e-013 -3.21364e-011 8.21731e-014 -8.96916e-013 -5.55098e-011 1.43125e-013 -1.56245e-012 -3.21343e-011 8.3092e-014 -9.12819e-013 7.73091 5.47488 0.417314 -3.21367e-011 8.19987e-014 -9.03278e-013 2.90554 0.965183 0.102902 -3.2133e-011 8.19987e-014 -9.04073e-013 10.2786 0.731801 0.0259123 -3.21429e-011 8.70677e-014 -9.03278e-013 2.22167 -0.733487 -0.20892 -3.4279e-015 1.35888e-017 -1.98785e-016 -7.11471e-014 5.90142e-016 -3.18055e-015 -1.19147e-012 -3.45289e-013 -2.8625e-014 -1.36196e-011 4.13621e-013 -3.84847e-013 -3.21249e-011 1.41545e-013 -9.09639e-013 -5.54597e-011 2.41722e-013 -1.55529e-012 -3.2128e-011 1.41932e-013 -8.93736e-013 -7.73091 5.47488 -0.417314 -3.21227e-011 1.4064e-013 -9.06458e-013 -2.90554 0.965183 -0.102902 -3.21292e-011 1.41435e-013 -9.00892e-013 -10.2786 0.731801 -0.0259123 -3.21141e-011 1.46703e-013 -9.03278e-013 -2.22167 -0.733487 0.20892 -2.03217e-016 0 -3.88251e-019 1.03768 -4.8484 -0.0878818 -0.00129067 3.22991 0.00171958 -0.507997 1.61857 0.0909502 2.03217e-016 0 3.88251e-019 0.035828 -2.16336 0.0186163 0.00864531 -1.63356 0.0730528 0.498151 3.79688 -0.134157 
6.0969 83.5794 -198.87 -1.88711 2.39448 0.363077 1.72051 -2.71363 -0.28067 1.35827 0.345984 -0.0875262 -0.284612 -0.913059 -0.402886 0.447241 -2.70638 -0.662756 -0 0 0 -0 0 0 -2.99945e-014 2.19818e-015 1.05915e-015 20.9268 6.83295 0.249307 -3.70806 -1.59448 5.88599 0.0221296 -3.301 -0.461149 1.51237e-011 1.96176e-010 -1.16729e-010 2.61223e-011 3.4008e-010 -2.01464e-010 1.51249e-011 1.96177e-010 -1.16742e-010 7.73091 5.47488 0.417314 1.51229e-011 1.96176e-010 -1.16737e-010 2.90554 0.965183 0.102902 1.51293e-011 1.96176e-010 -1.16735e-010 10.2786 0.731801 0.0259123 1.51177e-011 1.9618e-010 -1.16734e-010 2.22167 -0.733487 -0.20892 -3.01243e-014 2.19603e-015 8.0601e-016 -22.8457 6.125 0.906147 4.5262 -2.12141 -6.9978 -0.00237455 1.08112 -0.151844 -1.82114e-011 2.32241e-010 8.22936e-011 -3.15263e-011 4.01951e-010 1.4185e-010 -1.82138e-011 2.3224e-010 8.23077e-011 -7.73091 5.47488 -0.417314 -1.82089e-011 2.32239e-010 8.2296e-011 -2.90554 0.965183 -0.102902 -1.82162e-011 2.3224e-010 8.23003e-011 -10.2786 0.731801 -0.0259123 -1.82015e-011 2.32246e-010 8.22985e-011 -2.22167 -0.733487 0.20892 -2.03217e-016 0 -3.88251e-019 1.38217 -7.45849 0.528927 0.0154791 8.81915 0.111407 -0.794755 -3.0153 -3.02535 2.03217e-016 0 3.88251e-019 2.1575 -5.50411 -1.07631 -0.0156417 5.57989 -0.0778693 0.75762 -1.81419 2.84957 
6.07022 83.5795 -198.87 -3.34624 4.9255 0.744881 2.76046 -5.57873 -0.605349 2.5895 0.718885 -0.217049 -0.599238 -1.8779 -0.82922 0.856058 -5.5679 -1.36817 -0 0 0 -0 0 0 -5.97447e-014 2.09752e-015 2.65874e-015 42.9855 14.0539 0.523539 -7.2711 -3.22217 12.1185 -0.0126092 -6.78549 -0.953143 7.0729e-011 4.07152e-010 -2.36965e-010 1.22129e-010 7.05913e-010 -4.08937e-010 7.07293e-011 4.07152e-010 -2.36973e-010 7.73091 5.47488 0.417314 7.07277e-011 4.07151e-010 -2.36974e-010 2.90554 0.965183 0.102902 7.07371e-011 4.07151e-010 -2.3697e-010 10.2786 0.731801 0.0259123 7.07237e-011 4.07155e-010 -2.36968e-010 2.22167 -0.733487 -0.20892 -5.98033e-014 2.09243e-015 2.34814e-015 -47.2116 12.592 1.89961 8.75282 -4.25911 -14.4272 0.00134805 2.22168 -0.312219 -8.4638e-013 4.8404e-010 1.72074e-010 -1.6681e-012 8.37747e-010 2.96591e-010 -8.47915e-013 4.84037e-010 1.72086e-010 -7.73091 5.47488 -0.417314 -8.43509e-013 4.84038e-010 1.72075e-010 -2.90554 0.965183 -0.102902 -8.51514e-013 4.84038e-010 1.72078e-010 -10.2786 0.731801 -0.0259123 -8.37367e-013 4.84044e-010 1.72077e-010 -2.22167 -0.733487 0.20892 -2.03217e-016 0 -3.88251e-019 1.80728 -10.2145 1.18915 0.00921314 14.7282 0.232354 -1.65035 -7.87568 -6.37558 2.03217e-016 0 3.88251e-019 4.25881 -9.03089 -2.25311 0.000867985 13.205 -0.242913 1.66967 -7.70816 6.05037 
6.07147 83.5776 -198.877 -4.67871 7.18431 1.07806 3.66511 -8.13259 -0.889926 3.6901 1.04847 -0.330057 -0.892393 -2.73863 -1.20989 1.15231 -8.11476 -2.00615 -0 0 0 -0 0 0 -8.35204e-014 6.56813e-015 3.17745e-015 62.5918 20.4972 0.792805 -10.156 -4.58188 17.7096 -0.0950559 -9.90042 -1.40203 1.09644e-010 5.88364e-010 -3.48394e-010 1.89387e-010 1.01995e-009 -6.01266e-010 1.09643e-010 5.88364e-010 -3.48399e-010 7.73091 5.47488 0.417314 1.09642e-010 5.88363e-010 -3.48404e-010 2.90554 0.965183 0.102902 1.09654e-010 5.88363e-010 -3.48398e-010 10.2786 0.731801 0.0259123 1.09639e-010 5.88367e-010 -3.48395e-010 2.22167 -0.733487 -0.20892 -8.3517e-014 6.56091e-015 2.8156e-015 -69.1446 18.3561 2.84794 12.0556 -5.9853 -21.0994 0.0100906 3.24327 -0.456182 9.61551e-012 6.9644e-010 2.487e-010 1.63404e-011 1.20537e-009 4.2866e-010 9.61461e-012 6.96435e-010 2.4871e-010 -7.73091 5.47488 -0.417314 9.6187e-012 6.96437e-010 2.48701e-010 -2.90554 0.965183 -0.102902 9.61e-012 6.96437e-010 2.48703e-010 -10.2786 0.731801 -0.0259123 9.62362e-012 6.96444e-010 2.48702e-010 -2.22167 -0.733487 0.20892 -2.03217e-016 0 -3.88251e-019 2.24363 -12.6736 1.79217 -0.0188765 19.9974 0.347807 -2.90105 -12.1335 -9.45847 2.03217e-016 0 3.88251e-019 6.01013 -12.1686 -3.32606 0.0550644 20.0063 -0.402858 3.056 -12.8865 9.0417 
